<svg version="1.0" xmlns="http://www.w3.org/2000/svg">
  <rect x="0" y="0" stroke="black" id="outerbox" style="stroke-width: 1px; vector-effect: non-scaling-stroke; fill-opacity: 0.75;" width="50" height="55" rx="0" ry="0"  fill="grey"/>
  
  <g text-anchor="middle">
    <rect id="bounding" x="50" y="0" stroke="black" style="stroke-width: 1px; vector-effect: non-scaling-stroke; fill-opacity: 0.75;" width="113" height="55" rx="0" ry="0"  fill="grey"/>

    <text id="status"
      x = "105"
      y = "32"
      fill="black"
      style="fill-opacity:0.3; font-family: 'Courier New'; font-size: 18px;" stroke="white">
        Unknown
    </text>
  </g>

  <g fill="#000000" stroke="none">
    <path  width="50px" height="20px" transform="translate(1,53) scale(0.1,-0.1)" d="M48 485 c-15 -33 -8 -40 134 -138 65 -44 117 -84 116 -89 -2 -4 -39 -33 -83 -63 l-80 -56 -3 73 c-1 40 -4 83 -7 94 -7 30 -33 38 -61 19 -23 -15 -24 -20 -24 -146 0 -136 8 -169 40 -169 23 0 336 215 344 236 3 8 3 20 0 28 -8 21 -321 236 -344 236 -12 0 -25 -10 -32 -25z"/>
  </g>

</svg>
